<?xml version="1.0" encoding="utf-8"?>
<!-- Generator: Adobe Illustrator 19.2.1, SVG Export Plug-In . SVG Version: 6.00 Build 0)  -->
<svg version="1.1" id="Layer_1" xmlns="http://www.w3.org/2000/svg" xmlns:xlink="http://www.w3.org/1999/xlink" x="0px" y="0px"
	 viewBox="0 0 658.3 337.6" style="enable-background:new 0 0 658.3 337.6;" xml:space="preserve">
<style type="text/css">
	.st0{fill:#EBD6A3;}
	.st1{fill:#49AAA7;}
	.st2{fill:#CCCBCA;}
	.st3{fill:#D3D0CD;stroke:#828282;stroke-width:2;stroke-miterlimit:10;}
	.st4{fill:#E3C57C;}
	.st5{fill:#414042;}
	.st6{fill:none;}
	.st7{fill:#E56161;stroke:#893434;stroke-width:2;stroke-miterlimit:10;}
	.st8{fill:#893434;}
	.st9{opacity:0.5;fill:#64A6B5;enable-background:new    ;}
	.st10{fill:none;stroke:#000000;stroke-width:2;stroke-miterlimit:10;}
	.st11{fill:none;stroke:#000000;stroke-width:1.5;stroke-miterlimit:10;}
	.st12{filter:url(#Adobe_OpacityMaskFilter);}
	.st13{opacity:0.5;mask:url(#XMLID_2_);fill:#64A6B5;enable-background:new    ;}
</style>
<ellipse id="XMLID_3_" class="st0" cx="258" cy="88.6" rx="15" ry="17.4"/>
<ellipse id="XMLID_4_" class="st0" cx="399.5" cy="88.6" rx="15" ry="17.4"/>
<path class="st1" d="M412.4,317.3c6,26.2-173.6,28-169.3,0c4.3-28-14.4-105.4-14.4-105.4c0-11.3,10.6-20.4,23.6-20.4l75.8-4.3
	l75.8,4.3c13,0,23.6,9.1,23.6,20.4C427.4,211.9,409.8,289.6,412.4,317.3z"/>
<rect x="324.2" y="209.4" class="st2" width="7.3" height="127.2"/>
<g id="XMLID_39_">
	<path id="XMLID_38_" class="st3" d="M362.8,178.7c2.4,2.9,4.9,6.4,3.9,10.1c-0.5,2-2.1,3.5-3.5,4.9c-8.8,8.6-18,18.7-26.8,27.3
		c-2.9-9.8-5.5-21.1-8.5-30.9c12-3.2,23.7-7.4,35.1-12.4"/>
	<path id="XMLID_37_" class="st3" d="M292.6,178.1c-2.4,3-4.9,6.8-3.9,10.6c0.5,2.1,2.1,3.7,3.5,5.2c8.8,9,17.7,18.1,26.5,27.1
		c2.9-10.3,5.8-20.6,8.7-30.9c-12-3.4-23.7-7.8-35.1-13"/>
</g>
<path id="XMLID_74_" class="st0" d="M404,88.9c0,51.9-36,100.4-76.3,100.4c-44.7,0-76.3-53.3-76.3-100.4s31.6-86,76.3-86
	S404,41.8,404,88.9z"/>
<path id="XMLID_73_" class="st4" d="M404.9,88.5c0,39.2-21.5,84.6-58.5,97.7c-3.6,1.3-9.3,2.8-13.3,3c-3.3,0.1-3.3,0.1-5,0.1
	c0.1-11.7,0.1-5.6,0.1-10.7c0-14,0-28.1,0-42.1c0-28.7,0-57.3,0-86c0-11.5,0-23,0-34.5c0-2.7-0.9-7.6,0-10.2
	c2.3-6.3,11.1-3.2,17.4-1.7C382.3,12.9,404.9,50,404.9,88.5z"/>
<path id="XMLID_72_" class="st0" d="M317.4,91.5"/>
<path id="XMLID_24_" class="st4" d="M318.7,90.5"/>
<path id="XMLID_71_" class="st4" d="M337.2,90.6"/>
<path id="XMLID_6_" d="M258.7,95.3c-7.4-14.9-8.5-32.4-5.1-48.6c3.4-16.2,5.6-30.1,15-43.8c0.8,3.2,9.6,4,12.9,4.4s6.5-0.6,9.7-1.5
	c25.7-7,53-7.7,79-2c8.1,1.8,16.6,4.5,21.9,10.9c3.4,4.2,5.1,9.6,6.5,14.8c3,11.3,5.1,23,5,34.7s-2.5,23.5-8.1,33.8
	c2.1-9.7,4-20.3-0.5-29.2c-2.9-5.6-8.2-10-9.7-16.1c-1.4-5.4,0.2-12-3.6-16c-2.5-2.6-6.4-3.1-9.9-2.4s-6.6,2.4-9.9,3.8
	c-11,4.7-23.3,5.6-35.3,4.8c-12-0.8-23.7-3.6-35.5-5.7c-4.1-0.7-8.4-1.4-12.2,0.3c-4.2,1.8-6.7,6-8.7,10c-7.5,15-11.3,31.9-11,48.7"
	/>
<path id="XMLID_58_" class="st5" d="M382.9,37.2c-3.5-7.4-11.6-11.7-19.7-13s-16.3-0.2-24.5,0.5c-10.8,1-21.6,1.2-32.3,0.7
	c-6.2-0.3-12.4-0.8-18.1-3.3c-5.6-2.5-16.6-6.3-17.6-12.4c-4,4.6-4,13.3-3,19.5c1,6-3.1,23.1-2.2,29.2c8.9-25.4,22.7-20.4,32.2-19.4
	c9.6,1,20.4,3.3,29.9,5.2s19.5,2.6,28.5-0.8c7.4-2.8,14.7-8.3,22.3-6"/>
<path id="XMLID_57_" class="st6" d="M366.6,36.1c-6-7.2-14.5-12.2-23.7-13.9"/>
<path id="XMLID_56_" d="M357.9,39.6c-4.4-7.2-11.2-13-19.1-16.6c6,3.2,12.4,6.7,17.1,11.5c1.2,1.2,2.4,2.7,2.4,4.3"/>
<path id="XMLID_55_" d="M362.9,38.3c-4.7-6.9-11.7-12.6-20-16c6.3,3.1,13.1,6.5,18,11.1c1.2,1.2,2.5,2.6,2.5,4.2"/>
<path id="XMLID_54_" d="M352.2,41.8c-4.4-7.2-11.2-13-19.1-16.6c6,3.2,12.4,6.7,17.1,11.5c1.2,1.2,2.4,2.7,2.4,4.3"/>
<path id="XMLID_53_" d="M330.4,41.8c-4.4-7.2-11.2-13-19.1-16.6c6,3.2,12.4,6.7,17.1,11.5c1.2,1.2,2.4,2.7,2.4,4.3"/>
<path id="XMLID_52_" d="M296.5,36.1c-5.5-9.6-13.8-17.4-23.5-22.2c7.4,4.3,15.3,9,21.1,15.4c1.5,1.6,2.9,3.5,3,5.8"/>
<path id="XMLID_51_" d="M281.4,36.9c-1.6-7.1-5.3-13.6-10.6-18.5c3.9,4.2,8,8.7,10.4,13.9c0.6,1.3,1.2,2.8,0.7,4.2"/>
<g>
	<path id="XMLID_49_" class="st7" d="M334.7,201.4c0,0-12.1-8-25.1-13.7c-11.1-4.9-21.8-6.1-20.8-1.8l6.2,27.1
		C297,222.2,336.8,210.6,334.7,201.4z"/>
	<path id="XMLID_50_" class="st7" d="M320.9,201.4c0,0,12.1-8,25.1-13.7c11.1-4.9,21.8-6.1,20.9-1.8l-6.2,27.1
		C358.5,222.2,318.8,210.6,320.9,201.4z"/>
	<ellipse id="XMLID_48_" class="st7" cx="327.8" cy="201.7" rx="11.3" ry="13"/>
	<g>
		<path id="XMLID_47_" class="st8" d="M337.5,198.5c2.8-0.9,5.6-1.8,8.4-2.7c-2.2,1.8-4.9,2.8-7.8,3c-0.1-0.5-0.3-1-0.4-1.4"/>
		<path id="XMLID_46_" class="st8" d="M338.2,201.7c3.3,2.4,7.3,3.5,11.4,3.2c-3.8-0.8-7.6-1.4-11.4-2.2"/>
		<path id="XMLID_45_" class="st8" d="M317.7,199.4c-2.4-2.3-5.6-3.9-8.9-4.6c0,0.4,0,0.9-0.1,1.3c2.8,1.3,5.7,2.4,8.5,3.7"/>
		<path id="XMLID_44_" class="st8" d="M317.1,202.7c-1.8,0.4-3.7,0.9-5.4,1.3c2.4-0.3,4.8-0.4,7.2-0.6"/>
		<path id="XMLID_43_" class="st8" d="M331.1,214.2c-0.6,0.1-1.6,0.5-2.5,0.5c-0.9-2.2-0.9-9-0.9-13c0.1-3.9-0.4-10.9,0.6-12.9
			c0.8,0,2.7,0.3,3,0.5c4.9,1.9,6.8,6.2,6.7,12.7c0,2.2-0.3,4.2-0.6,5.9c-0.3,0.9-0.5,1.8-1,2.5
			C335.2,212.7,332.8,213.6,331.1,214.2z"/>
	</g>
</g>
<path id="XMLID_41_" class="st9" d="M312.7,113.3h-39.2c-2,0-3.6-2.2-3.6-4.8c-0.2-4.2-0.3-8.7-0.2-13.4c0-2.3,0.1-4.5,0.2-6.7
	c0-0.3,0-2.1,1.1-3.4c0.7-0.9,1.6-1.4,2.6-1.4h40.9c2,0,3.6,2.2,3.6,4.8l-1.8,20.1C316.3,111.1,314.7,113.3,312.7,113.3z"/>
<path id="XMLID_69_" class="st10" d="M269.4,93.5c-0.6-3,0.1-7.4,1.4-9.3c0.4-0.6,1.1-0.6,1.4-0.6c5.1-0.6,13.9-0.3,21.9-0.3
	c9.4,0.1,18.1,0,21.3,0.4c0.3,0,1.1,0.4,1.5,0.9c0.6,0.8,1,1,1.1,2.1c0.1,1.2,0.2,3.3-0.2,5.9"/>
<path id="XMLID_28_" class="st11" d="M268.7,92.9c-4.1-1.4-8.1-2.7-12.2-4"/>
<path id="XMLID_26_" class="st11" d="M269.2,90.8c-4.3-1.4-8.6-2.8-12.9-4.1"/>
<defs>
	<filter id="Adobe_OpacityMaskFilter" filterUnits="userSpaceOnUse" x="338.1" y="83.5" width="48.4" height="29.8">
		<feFlood  style="flood-color:white;flood-opacity:1" result="back"/>
		<feBlend  in="SourceGraphic" in2="back" mode="normal"/>
	</filter>
</defs>
<mask maskUnits="userSpaceOnUse" x="338.1" y="83.5" width="48.4" height="29.8" id="XMLID_2_">
	<g class="st12">
	</g>
</mask>
<path id="XMLID_31_" class="st13" d="M343.5,113.3h39.2c2,0,3.6-2.2,3.6-4.9c0.2-4.2,0.3-8.6,0.2-13.4c0-2.3-0.1-4.5-0.2-6.7
	c0-0.3,0-2-1.1-3.4c-0.7-0.9-1.6-1.4-2.6-1.4h-40.9c-2,0-3.6,2.2-3.6,4.9l1.8,20C339.8,111.1,341.4,113.3,343.5,113.3z"/>
<path id="XMLID_30_" class="st10" d="M338.4,92.7c-0.4-2.7-0.4-4.8-0.2-5.9c0.1-1.1,0.4-1.3,1.1-2.1c0.4-0.5,1.2-0.9,1.5-0.9
	c3.2-0.4,11.9-0.4,21.3-0.4c8-0.1,16.8-0.3,21.9,0.3c0.3,0,1,0.1,1.4,0.6c1.3,1.9,2,6.3,1.4,9.3"/>
<path id="XMLID_29_" class="st11" d="M387.4,92.9c3.7-1.2,7.6-2.5,11.3-3.7"/>
<path id="XMLID_27_" class="st11" d="M386.9,90.9c4.3-1.4,8.6-2.8,12.9-4.1"/>
<path id="XMLID_117_" class="st10" d="M318.5,89.9c2.5-0.6,6-1.2,10.2-1.2c3.6,0.1,6.7,0.6,9,1.2"/>
</svg>
