<?xml version="1.0" encoding="utf-8"?>
<!-- Generator: Adobe Illustrator 19.0.0, SVG Export Plug-In . SVG Version: 6.00 Build 0)  -->
<svg version="1.1" id="Layer_1" xmlns="http://www.w3.org/2000/svg" xmlns:xlink="http://www.w3.org/1999/xlink" x="0px" y="0px"
	 viewBox="38 252.9 688 289.1" style="enable-background:new 38 252.9 688 289.1;" xml:space="preserve">
<style type="text/css">
	.st0{fill:#EBD6A3;}
	.st1{fill:#FFFFFF;}
	.st2{fill:#D3D0CD;stroke:#B7B6B6;stroke-miterlimit:10;}
	.st3{fill:#E3C57C;}
	.st4{fill:none;stroke:#CCCBCA;stroke-width:10;stroke-miterlimit:10;}
	.st5{fill:#414042;}
	.st6{fill:none;}
	.st7{fill:#00A79D;}
	.st8{fill:#095B56;}
	.st9{opacity:0.58;fill:#619CBA;enable-background:new    ;}
	.st10{fill:none;stroke:#000000;stroke-width:2;stroke-miterlimit:10;}
	.st11{fill:none;stroke:#000000;stroke-width:1.5;stroke-miterlimit:10;}
	.st12{opacity:0.58;}
	.st13{fill:#619CBA;}
	.st14{font-family:'CenturyGothic';}
	.st15{font-size:72px;}
</style>
<g id="Layer_1_2_">
	<g id="Layer_2">
		<ellipse id="XMLID_3_" class="st0" cx="312.2" cy="357.5" rx="15" ry="17.4"/>
		<ellipse id="XMLID_4_" class="st0" cx="453.7" cy="357.5" rx="15" ry="17.4"/>
		<path id="XMLID_34_" class="st1" d="M447.6,606.5h-123c-25.7,0-46.5-20.8-46.5-46.5v-55.2c0-25.7,20.8-46.5,46.5-46.5h123
			c25.7,0,46.5,20.8,46.5,46.5V560C494.1,585.6,473.3,606.5,447.6,606.5z"/>
	</g>
	<g id="Layer_7">
		<g id="XMLID_39_">
			<path id="XMLID_38_" class="st2" d="M417,447.6c2.4,2.9,4.9,6.4,3.9,10.1c-0.5,2-2.1,3.5-3.5,4.9c-8.8,8.6-17.7,17.2-26.5,25.8
				c-2.9-9.8-5.8-19.6-8.7-29.4c12-3.2,23.7-7.4,35.1-12.4"/>
			<path id="XMLID_37_" class="st2" d="M346.8,447c-2.4,3-4.9,6.8-3.9,10.6c0.5,2.1,2.1,3.7,3.5,5.2c8.8,9,17.7,18.1,26.5,27.1
				c2.9-10.3,5.8-20.6,8.7-30.9c-12-3.4-23.7-7.8-35.1-13"/>
		</g>
	</g>
	<g id="Layer_1_1_">
		<path id="XMLID_74_" class="st0" d="M458.2,357.8c0,51.9-36,100.4-76.3,100.4c-44.7,0-76.3-53.3-76.3-100.4s31.6-86,76.3-86
			S458.2,310.7,458.2,357.8z"/>
		<path id="XMLID_73_" class="st3" d="M459.1,357.4c0,39.2-21.5,84.6-58.5,97.7c-3.6,1.3-9.3,2.8-13.3,3c-3.3,0.1-3.3,0.1-5,0.1
			c0.1-11.7,0.1-5.6,0.1-10.7c0-14,0-28.1,0-42.1c0-28.7,0-57.3,0-86c0-11.5,0-23,0-34.5c0-2.7-0.9-7.6,0-10.2
			c2.3-6.3,11.1-3.2,17.4-1.7C436.5,281.8,459.1,318.9,459.1,357.4z"/>
		<path id="XMLID_72_" class="st0" d="M371.6,360.4"/>
		<line id="XMLID_70_" class="st4" x1="382" y1="478.9" x2="382" y2="606.5"/>
		<path id="XMLID_24_" class="st3" d="M372.9,359.4"/>
		<path id="XMLID_71_" class="st3" d="M391.4,359.5"/>
	</g>
	<g id="Layer_3">
		<path id="XMLID_6_" d="M313,364.2c-7.4-14.9-8.5-32.4-5.1-48.6s11.1-31.3,20.5-45c0.8,3.2,4.1,5.2,7.4,5.6s6.5-0.6,9.7-1.5
			c25.7-7,53-7.7,79-2c8.1,1.8,16.6,4.5,21.9,10.9c3.4,4.2,5.1,9.6,6.5,14.8c3,11.3,5.1,23,5,34.7s-2.5,23.5-8.1,33.8
			c2.1-9.7,4-20.3-0.5-29.2c-2.9-5.6-8.2-10-9.7-16.1c-1.4-5.4,0.2-12-3.6-16c-2.5-2.6-6.4-3.1-9.9-2.4s-6.6,2.4-9.9,3.8
			c-11,4.7-23.3,5.6-35.3,4.8c-12-0.8-23.7-3.6-35.5-5.7c-4.1-0.7-8.4-1.4-12.2,0.3c-4.2,1.8-6.7,6-8.7,10
			c-7.5,15-11.3,31.9-11,48.7"/>
	</g>
	<g id="Layer_4">
		<path id="XMLID_58_" class="st5" d="M436.5,306.1c-3.5-7.4-11.6-11.7-19.7-13s-16.3-0.2-24.5,0.5c-10.8,1-21.6,1.2-32.3,0.7
			c-6.2-0.3-12.4-0.8-18.1-3.3c-5.6-2.5-10.6-7.3-11.6-13.4c-4,4.6-5.8,10.8-6.3,16.9s1.1,12.8,2,18.9c7.8-5.6,17.4-7.3,26.9-6.3
			c9.6,1,18.8,4,28.3,5.9s19.5,2.6,28.5-0.8c7.4-2.8,14.7-8.3,22.3-6"/>
		<path id="XMLID_57_" class="st6" d="M420.8,305c-6-7.2-14.5-12.2-23.7-13.9"/>
		<path id="XMLID_56_" d="M412.1,308.5c-4.4-7.2-11.2-13-19.1-16.6c6,3.2,12.4,6.7,17.1,11.5c1.2,1.2,2.4,2.7,2.4,4.3"/>
		<path id="XMLID_55_" d="M417.1,307.2c-4.7-6.9-11.7-12.6-20-16c6.3,3.1,13.1,6.5,18,11.1c1.2,1.2,2.5,2.6,2.5,4.2"/>
		<path id="XMLID_54_" d="M406.4,310.7c-4.4-7.2-11.2-13-19.1-16.6c6,3.2,12.4,6.7,17.1,11.5c1.2,1.2,2.4,2.7,2.4,4.3"/>
		<path id="XMLID_53_" d="M384.6,310.7c-4.4-7.2-11.2-13-19.1-16.6c6,3.2,12.4,6.7,17.1,11.5c1.2,1.2,2.4,2.7,2.4,4.3"/>
		<path id="XMLID_52_" d="M350.7,305c-5.5-9.6-13.8-17.4-23.5-22.2c7.4,4.3,15.3,9,21.1,15.4c1.5,1.6,2.9,3.5,3,5.8"/>
		<path id="XMLID_51_" d="M335.6,305.8c-1.6-7.1-5.3-13.6-10.6-18.5c3.9,4.2,8,8.7,10.4,13.9c0.6,1.3,1.2,2.8,0.7,4.2"/>
		<g id="XMLID_42_">
			<path id="XMLID_50_" class="st7" d="M376.6,470c0,0,9.6-6.3,19.8-10.8c8.8-3.9,17.2-4.8,16.5-1.4l-4.9,21.4
				C406.3,486.4,374.9,477.2,376.6,470z"/>
			<path id="XMLID_49_" class="st7" d="M387.5,470c0,0-9.6-6.3-19.8-10.8c-8.8-3.9-17.2-4.8-16.4-1.4l4.9,21.4
				C357.7,486.4,389.1,477.2,387.5,470z"/>
			<ellipse id="XMLID_48_" class="st7" cx="382" cy="470.2" rx="8.9" ry="10.3"/>
			<path id="XMLID_47_" class="st8" d="M389.7,467.7c2.2-0.7,4.4-1.4,6.6-2.1c-1.7,1.4-3.9,2.2-6.2,2.4c-0.1-0.4-0.2-0.8-0.3-1.1"/>
			<path id="XMLID_46_" class="st8" d="M390.2,470.2c2.6,1.9,5.8,2.8,9,2.5c-3-0.6-6-1.1-9-1.7"/>
			<path id="XMLID_45_" class="st8" d="M374,468.4c-1.9-1.8-4.4-3.1-7-3.6c0,0.3,0,0.7-0.1,1c2.2,1,4.5,1.9,6.7,2.9"/>
			<path id="XMLID_44_" class="st8" d="M373.6,471c-1.4,0.3-2.9,0.7-4.3,1c1.9-0.2,3.8-0.3,5.7-0.5"/>
			<path id="XMLID_43_" class="st8" d="M384.6,480.1c-0.5,0.1-1.3,0.4-2,0.4c-0.7-1.7-0.7-7.1-0.7-10.3c0.1-3.1-0.3-8.6,0.5-10.2
				c0.6,0,2.1,0.2,2.4,0.4c3.9,1.5,5.4,4.9,5.3,10c0,1.7-0.2,3.3-0.5,4.7c-0.2,0.7-0.4,1.4-0.8,2C387.9,478.9,386,479.6,384.6,480.1
				z"/>
		</g>
		<path id="XMLID_41_" class="st9" d="M366.9,382.2h-39.2c-2,0-3.6-2.2-3.6-4.8c-0.2-4.2-0.3-8.7-0.2-13.4c0-2.3,0.1-4.5,0.2-6.7
			c0-0.3,0-2.1,1.1-3.4c0.7-0.9,1.6-1.4,2.6-1.4h40.9c2,0,3.6,2.2,3.6,4.8l-1.8,20.1C370.5,380,368.9,382.2,366.9,382.2z"/>
	</g>
	<path id="XMLID_69_" class="st10" d="M323.6,362.4c-0.6-3,0.1-7.4,1.4-9.3c0.4-0.6,1.1-0.6,1.4-0.6c5.1-0.6,13.9-0.3,21.9-0.3
		c9.4,0.1,18.1,0,21.3,0.4c0.3,0,1.1,0.4,1.5,0.9c0.6,0.8,1,1,1.1,2.1c0.1,1.2,0.2,3.3-0.2,5.9"/>
	<path id="XMLID_28_" class="st11" d="M322.9,361.8c-4.1-1.4-8.1-2.7-12.2-4"/>
	<path id="XMLID_26_" class="st11" d="M323.4,359.7c-4.3-1.4-8.6-2.8-12.9-4.1"/>
	<g id="XMLID_118_" class="st12">
		<path id="XMLID_31_" class="st13" d="M397.7,382.2h39.2c2,0,3.6-2.2,3.6-4.9c0.2-4.2,0.3-8.6,0.2-13.4c0-2.3-0.1-4.5-0.2-6.7
			c0-0.3,0-2-1.1-3.4c-0.7-0.9-1.6-1.4-2.6-1.4h-40.9c-2,0-3.6,2.2-3.6,4.9l1.8,20C394,380,395.6,382.2,397.7,382.2z"/>
		<path id="XMLID_30_" class="st10" d="M392.6,361.6c-0.4-2.7-0.4-4.8-0.2-5.9c0.1-1.1,0.4-1.3,1.1-2.1c0.4-0.5,1.2-0.9,1.5-0.9
			c3.2-0.4,11.9-0.4,21.3-0.4c8-0.1,16.8-0.3,21.9,0.3c0.3,0,1,0.1,1.4,0.6c1.3,1.9,2,6.3,1.4,9.3"/>
		<path id="XMLID_29_" class="st11" d="M441.6,361.8c3.7-1.2,7.6-2.5,11.3-3.7"/>
		<path id="XMLID_27_" class="st11" d="M441.1,359.8c4.3-1.4,8.6-2.8,12.9-4.1"/>
	</g>
	<g id="Layer_6">
		<path id="XMLID_117_" class="st10" d="M372.7,358.8c2.5-0.6,6-1.2,10.2-1.2c3.6,0.1,6.7,0.6,9,1.2"/>
	</g>
</g>
<rect x="54.2" y="393" class="st6" width="205" height="57.3"/>
<text transform="matrix(1.0516 0 0 1 54.2129 458.208)" class="st1 st14 st15">CHRIS</text>
<rect x="483.2" y="393" class="st6" width="225.9" height="53.6"/>
<text transform="matrix(0.9318 0 0 1 507.2129 458.2079)" class="st1 st14 st15">JIANG</text>
</svg>
